<?xml version="1.0" encoding="utf-8"?>
<!-- Generator: Adobe Illustrator 26.0.2, SVG Export Plug-In . SVG Version: 6.00 Build 0)  -->
<svg version="1.1" id="Layer_1" xmlns="http://www.w3.org/2000/svg" xmlns:xlink="http://www.w3.org/1999/xlink" x="0px" y="0px"
	 viewBox="0 0 200 200" style="enable-background:new 0 0 200 200;" xml:space="preserve">
<style type="text/css">
	.st0{fill:#010101;}
</style>
<path class="st0" d="M94.2,76.8L70.1,50.3c-1.1-1.1-2.6-1.6-4-1.5c-1.4-0.1-2.9,0.4-4,1.5L38,76.8c-2,2-2,5.4,0,7.4c2,2,5.4,2,7.4,0
	l14.9-16.4v69c0,3.2,2.6,5.8,5.8,5.8c3.2,0,5.8-2.6,5.8-5.8v-69l14.9,16.4c2,2,5.4,2,7.4,0C96.2,82.1,96.2,78.8,94.2,76.8z"/>
<path class="st0" d="M104.2,125.8l24.1,26.5c1.1,1.1,2.6,1.6,4,1.5c1.4,0.1,2.9-0.4,4-1.5l24-26.5c2-2,2-5.4,0-7.4c-2-2-5.4-2-7.4,0
	L138,134.9v-69c0-3.2-2.6-5.8-5.8-5.8c-3.2,0-5.8,2.6-5.8,5.8v69l-14.9-16.4c-2-2-5.4-2-7.4,0C102.1,120.5,102.1,123.8,104.2,125.8z
	"/>
</svg>
