<?xml version="1.0" encoding="utf-8"?>
<!-- Generator: Adobe Illustrator 26.0.2, SVG Export Plug-In . SVG Version: 6.00 Build 0)  -->
<svg version="1.1" id="Layer_1" xmlns="http://www.w3.org/2000/svg" xmlns:xlink="http://www.w3.org/1999/xlink" x="0px" y="0px"
	 viewBox="0 0 200 200" style="enable-background:new 0 0 200 200;" xml:space="preserve">
<style type="text/css">
	.st0{fill:#010101;}
</style>
<path class="st0" d="M127.8,80.9l-24.1-26.5c-1.1-1.1-2.6-1.6-4-1.5c-1.4-0.1-2.9,0.4-4,1.5l-24,26.5c-2,2-2,5.4,0,7.4
	c2,2,5.4,2,7.4,0l14.9-16.4v69c0,3.2,2.6,5.8,5.8,5.8c3.2,0,5.8-2.6,5.8-5.8v-69l14.9,16.4c2,2,5.4,2,7.4,0
	C129.8,86.3,129.8,83,127.8,80.9z"/>
</svg>
