<svg width="38" height="39" viewBox="0 0 38 39" fill="none" xmlns="http://www.w3.org/2000/svg">
<mask id="mask0_1818_4175" style="mask-type:alpha" maskUnits="userSpaceOnUse" x="0" y="0" width="38" height="39">
<rect y="0.453125" width="38" height="38" fill="#D9D9D9"/>
</mask>
<g mask="url(#mask0_1818_4175)">
<path d="M9.49998 32.1197C8.18053 32.1197 7.05901 31.6579 6.1354 30.7343C5.21178 29.8107 4.74998 28.6892 4.74998 27.3697H1.58331V9.95304C1.58331 9.08221 1.89338 8.33672 2.51352 7.71659C3.13366 7.09645 3.87915 6.78638 4.74998 6.78638H26.9166V13.1197H31.6666L36.4166 19.453V27.3697H33.25C33.25 28.6892 32.7882 29.8107 31.8646 30.7343C30.941 31.6579 29.8194 32.1197 28.5 32.1197C27.1805 32.1197 26.059 31.6579 25.1354 30.7343C24.2118 29.8107 23.75 28.6892 23.75 27.3697H14.25C14.25 28.6892 13.7882 29.8107 12.8646 30.7343C11.941 31.6579 10.8194 32.1197 9.49998 32.1197ZM9.49998 28.953C9.94859 28.953 10.3246 28.8013 10.6281 28.4978C10.9316 28.1944 11.0833 27.8183 11.0833 27.3697C11.0833 26.9211 10.9316 26.5451 10.6281 26.2416C10.3246 25.9381 9.94859 25.7864 9.49998 25.7864C9.05137 25.7864 8.67533 25.9381 8.37185 26.2416C8.06838 26.5451 7.91665 26.9211 7.91665 27.3697C7.91665 27.8183 8.06838 28.1944 8.37185 28.4978C8.67533 28.8013 9.05137 28.953 9.49998 28.953ZM4.74998 24.203H6.01665C6.46526 23.728 6.97984 23.3454 7.5604 23.0551C8.14095 22.7649 8.78748 22.6197 9.49998 22.6197C10.2125 22.6197 10.859 22.7649 11.4396 23.0551C12.0201 23.3454 12.5347 23.728 12.9833 24.203H23.75V9.95304H4.74998V24.203ZM28.5 28.953C28.9486 28.953 29.3246 28.8013 29.6281 28.4978C29.9316 28.1944 30.0833 27.8183 30.0833 27.3697C30.0833 26.9211 29.9316 26.5451 29.6281 26.2416C29.3246 25.9381 28.9486 25.7864 28.5 25.7864C28.0514 25.7864 27.6753 25.9381 27.3719 26.2416C27.0684 26.5451 26.9166 26.9211 26.9166 27.3697C26.9166 27.8183 27.0684 28.1944 27.3719 28.4978C27.6753 28.8013 28.0514 28.953 28.5 28.953ZM26.9166 21.0364H33.6458L30.0833 16.2864H26.9166V21.0364Z" fill="white"/>
</g>
</svg>
