<svg width="38" height="39" viewBox="0 0 38 39" fill="none" xmlns="http://www.w3.org/2000/svg">
<mask id="mask0_1818_4185" style="mask-type:alpha" maskUnits="userSpaceOnUse" x="0" y="0" width="38" height="39">
<rect y="0.453125" width="38" height="38" fill="#D9D9D9"/>
</mask>
<g mask="url(#mask0_1818_4185)">
<path d="M19 32.1197C17.5222 32.1197 16.1302 31.8888 14.824 31.427C13.5177 30.9652 12.3236 30.3121 11.2417 29.4676L9.02501 31.6447C8.73473 31.935 8.36529 32.0801 7.91668 32.0801C7.46807 32.0801 7.09862 31.935 6.80834 31.6447C6.51807 31.3544 6.37293 30.985 6.37293 30.5364C6.37293 30.0878 6.51807 29.7183 6.80834 29.428L8.98543 27.251C8.14098 26.169 7.48786 24.9683 7.02605 23.6489C6.56425 22.3294 6.33334 20.9308 6.33334 19.453C6.33334 15.9169 7.56043 12.9218 10.0146 10.4676C12.4688 8.01346 15.4639 6.78638 19 6.78638H31.6667V19.453C31.6667 22.9892 30.4396 25.9843 27.9854 28.4385C25.5313 30.8926 22.5361 32.1197 19 32.1197ZM19 28.953C21.6389 28.953 23.882 28.0294 25.7292 26.1822C27.5764 24.335 28.5 22.0919 28.5 19.453V9.95304H19C16.3611 9.95304 14.1181 10.8767 12.2708 12.7239C10.4236 14.5711 9.50001 16.8142 9.50001 19.453C9.50001 20.4822 9.65834 21.4652 9.97501 22.402C10.2917 23.3388 10.7271 24.1898 11.2813 24.9551L19.475 16.7614C19.7653 16.4711 20.1347 16.326 20.5833 16.326C21.032 16.326 21.4014 16.4711 21.6917 16.7614C22.0083 17.078 22.1667 17.4541 22.1667 17.8895C22.1667 18.3249 22.0083 18.701 21.6917 19.0176L13.4979 27.2114C14.2632 27.7655 15.1142 28.1944 16.0511 28.4978C16.9879 28.8013 17.9708 28.953 19 28.953Z" fill="white"/>
</g>
</svg>
