<svg width="38" height="39" viewBox="0 0 38 39" fill="none" xmlns="http://www.w3.org/2000/svg">
<mask id="mask0_1818_4180" style="mask-type:alpha" maskUnits="userSpaceOnUse" x="0" y="0" width="38" height="39">
<rect y="0.453125" width="38" height="38" fill="#D9D9D9"/>
</mask>
<g mask="url(#mask0_1818_4180)">
<path d="M15.3188 22.1449L16.7042 17.6324L13.0625 14.7032H17.575L19 10.2699L20.425 14.7032H24.9375L21.2563 17.6324L22.6417 22.1449L19 19.3345L15.3188 22.1449ZM9.5 36.8699V24.6386C8.49722 23.5303 7.71875 22.2636 7.16459 20.8386C6.61042 19.4136 6.33334 17.8963 6.33334 16.2865C6.33334 12.7504 7.56042 9.75529 10.0146 7.30112C12.4688 4.84696 15.4639 3.61987 19 3.61987C22.5361 3.61987 25.5313 4.84696 27.9854 7.30112C30.4396 9.75529 31.6667 12.7504 31.6667 16.2865C31.6667 17.8963 31.3896 19.4136 30.8354 20.8386C30.2813 22.2636 29.5028 23.5303 28.5 24.6386V36.8699L19 33.7032L9.5 36.8699ZM19 25.7865C21.6389 25.7865 23.8819 24.8629 25.7292 23.0157C27.5764 21.1685 28.5 18.9254 28.5 16.2865C28.5 13.6477 27.5764 11.4046 25.7292 9.55737C23.8819 7.71015 21.6389 6.78654 19 6.78654C16.3611 6.78654 14.1181 7.71015 12.2708 9.55737C10.4236 11.4046 9.5 13.6477 9.5 16.2865C9.5 18.9254 10.4236 21.1685 12.2708 23.0157C14.1181 24.8629 16.3611 25.7865 19 25.7865ZM12.6667 32.1595L19 30.5365L25.3333 32.1595V27.2511C24.4097 27.7789 23.4135 28.1945 22.3448 28.498C21.276 28.8015 20.1611 28.9532 19 28.9532C17.8389 28.9532 16.724 28.8015 15.6552 28.498C14.5865 28.1945 13.5903 27.7789 12.6667 27.2511V32.1595Z" fill="white"/>
</g>
</svg>
